<svg xmlns="http://www.w3.org/2000/svg" width="32" height="32" viewBox="0 0 32 32">
  <rect width="32" height="32" fill="#446589" rx="4"/>
  <g transform="translate(4, 4)" stroke="#bed9ed" stroke-width="2" fill="none" stroke-linecap="round" stroke-linejoin="round">
    <circle cx="12" cy="12" r="3"/>
    <path d="M12 16.5A4.5 4.5 0 1 1 7.5 12 4.5 4.5 0 1 1 12 7.5a4.5 4.5 0 1 1 4.5 4.5 4.5 4.5 0 1 1-4.5 4.5"/>
    <path d="M12 7.5V9"/>
    <path d="M7.5 12H9"/>
    <path d="M16.5 12H15"/>
    <path d="M12 16.5V15"/>
    <path d="M8.8 8.8 10 10"/>
    <path d="M15.2 8.8 14 10"/>
    <path d="M15.2 15.2 14 14"/>
    <path d="M8.8 15.2 10 14"/>
  </g>
</svg>
